# xmcd CD database file
#
# Track frame offsets:
#	150
#	8329
#	31204
#	46695
#	67776
#	87712
#
# Disc length: 1652 seconds
#
# Revision: 0
# Processed by: cddbd v1.5.2PL0 Copyright (c) Steve Scherf et al.
# Submitted via: ACXtractor (MTCDDB.DLL V2003.12.21)
#
DISCID=37067206
DTITLE=Eddy Wilkinson - Soul Traveller live Demo
DYEAR=2007
DGENRE=Blues
TTITLE0=Green Onions
TTITLE1=What's Going On
TTITLE2=The Letter
TTITLE3=This Old Heart Of Mine
TTITLE4=Have A Little Faith
TTITLE5=Mustang Sally
EXTD="soul from the heart" ID3G:   0 YEAR: 2007
EXTT0=
EXTT1=
EXTT2=
EXTT3=
EXTT4=
EXTT5=
PLAYORDER=
